<svg width="40" height="40" viewBox="0 0 40 40" fill="none" xmlns="http://www.w3.org/2000/svg">
<path d="M6.4106 5.54524H4.54286V4.94074C4.55299 4.38037 4.44771 3.82812 4.24015 3.35284C4.03834 2.9061 3.6996 2.68298 3.22391 2.68347C3.00679 2.67007 2.79127 2.74251 2.60098 2.89283C2.44761 3.02582 2.31622 3.20491 2.2159 3.41771C2.11546 3.65541 2.04701 3.91796 2.0141 4.19176C1.9768 4.49053 1.95853 4.79353 1.95953 5.09703C1.95758 5.40369 1.96686 5.71029 1.98733 6.01557C2.00237 6.24504 2.0489 6.46801 2.12427 6.67167C2.20214 6.87154 2.31185 7.04228 2.44448 7.17001C2.62527 7.3401 2.81864 7.48101 3.02107 7.5902L4.44916 8.40406C4.81301 8.59069 5.15313 8.86111 5.45613 9.20465C5.7051 9.49771 5.91061 9.85915 6.06053 10.2677C6.20112 10.7223 6.29377 11.2042 6.33544 11.6978C6.38697 12.3034 6.41138 12.9131 6.40854 13.5231C6.41253 14.2605 6.35726 14.9962 6.2438 15.7155C6.15079 16.3346 5.96996 16.9197 5.71252 17.4346C5.44897 17.9332 5.1029 18.3299 4.70554 18.5891C4.22671 18.8875 3.7078 19.031 3.18581 19.0093C2.75323 19.0145 2.32409 18.8989 1.92246 18.6687C1.54548 18.4548 1.20286 18.1333 0.915487 17.7236C0.633398 17.3192 0.406744 16.8426 0.24726 16.3185C0.0801361 15.768 -0.00406387 15.1732 0.000150755 14.5729V13.5747H1.86789V14.4151C1.86505 14.8924 1.97136 15.3579 2.1706 15.7406C2.37241 16.1337 2.71115 16.3308 3.18684 16.3318C3.44136 16.3502 3.69532 16.2825 3.92817 16.1342C4.10145 16.0085 4.24478 15.812 4.34002 15.5696C4.44303 15.2983 4.50247 14.9976 4.51403 14.6893C4.53256 14.3473 4.54183 13.9664 4.54183 13.5467C4.54465 13.1435 4.53228 12.7404 4.50476 12.3392C4.49034 12.0746 4.44071 11.8163 4.35856 11.5784C4.27226 11.3858 4.1564 11.2239 4.01981 11.1051C3.84034 10.9547 3.65349 10.8231 3.46072 10.7115L2.12324 9.92415C1.31704 9.45087 0.776829 8.82524 0.502606 8.04726C0.228382 7.26928 0.0910984 6.29373 0.0907552 5.12062C0.088069 4.44497 0.156095 3.77256 0.292564 3.12578C0.414095 2.52969 0.619806 1.97568 0.896954 1.49807C1.16175 1.03312 1.49694 0.660529 1.87716 0.408502C2.32323 0.122494 2.80843 -0.0165655 3.29701 0.00157142C3.73457 -0.00625178 4.16832 0.118877 4.56963 0.368695C4.94139 0.601188 5.27971 0.930662 5.56734 1.34031C6.12848 2.18071 6.40923 3.14348 6.40957 4.22862V5.54524H6.4106Z" fill="#001E1F"/>
<path d="M8.2597 18.856V0.163818H10.0543L12.4534 10.0613H12.4904L14.8709 0.163818H16.6841V18.856H14.8164V7.48854H14.7793L12.9291 15.5224H11.9952L10.1635 7.48854H10.1264V18.856H8.2597Z" fill="#00E1BE"/>
<path d="M18.0587 18.856L20.9705 0.163818H22.5273L25.4391 18.856H23.5713L23.0215 14.8398H20.4753L19.9254 18.856H18.0587ZM22.6745 12.3186L21.7592 5.5453H21.7221L20.8068 12.3186H22.6745Z" fill="#001E1F"/>
<path d="M26.8136 18.856V0.163818H29.817C32.0153 0.163818 33.1142 1.99303 33.1139 5.65146C33.1139 6.7543 32.9948 7.69053 32.7566 8.46016C32.5188 9.23126 32.1004 9.85246 31.5015 10.3238L33.5165 18.856H31.5385L29.7985 10.8752H28.6813V18.856H26.8136ZM28.6813 2.68501V8.51323H29.7439C30.0133 8.52903 30.282 8.46165 30.5316 8.31566C30.7189 8.1942 30.878 7.99819 30.9898 7.75097C31.0957 7.46975 31.1641 7.16278 31.1916 6.84571C31.2308 6.43237 31.249 6.0155 31.2461 5.59838C31.2485 5.18129 31.2302 4.76447 31.1916 4.35106C31.1617 4.0229 31.0872 3.70632 30.9723 3.41925C30.7406 2.92976 30.3009 2.68452 29.6533 2.68353H28.6813V2.68501Z" fill="#001E1F"/>
<path d="M35.9711 18.856V2.685H33.8099V0.165283H40V2.685H37.8388V18.8575H35.9711V18.856Z" fill="#001E1F"/>
<path d="M0.0187378 39.8437V21.5054H1.78146L4.13724 31.2156H4.17328L6.51156 21.5054H8.29178V39.8437H6.45699V28.6915H6.42096L4.60469 36.5735H3.6873L1.88854 28.6915H1.8525V39.8437H0.0187378Z" fill="#001E1F"/>
<path d="M9.91136 25.8327C9.90198 25.1598 9.99399 24.492 10.1811 23.8747C10.3481 23.3346 10.5934 22.8517 10.9008 22.4578C11.1885 22.0973 11.521 21.8176 11.881 21.6336C12.4197 21.3561 12.9998 21.2862 13.5632 21.4308C14.1267 21.5755 14.6537 21.9296 15.0914 22.4578C15.3898 22.8571 15.6284 23.3392 15.7926 23.8747C15.9793 24.4922 16.0713 25.1599 16.0623 25.8327V35.5179C16.0754 36.1993 15.9833 36.8764 15.7926 37.5009C15.6276 38.0208 15.3888 38.4858 15.0914 38.8662C14.7989 39.2374 14.4601 39.5261 14.0927 39.7169C13.379 40.0943 12.5947 40.0943 11.881 39.7169C11.5177 39.5306 11.1843 39.2413 10.9008 38.8662C10.5941 38.492 10.3484 38.0259 10.1811 37.5009C9.9905 36.8763 9.8984 36.1992 9.91136 35.5179V25.8327ZM11.7462 35.5164C11.7462 36.1519 11.869 36.6197 12.1148 36.92C12.3598 37.2116 12.6683 37.3712 12.9868 37.3712C13.3054 37.3712 13.6139 37.2116 13.8589 36.92C14.105 36.6192 14.2279 36.1514 14.2275 35.5164V25.8312C14.2275 25.1957 14.1047 24.7279 13.8589 24.4276C13.6139 24.136 13.3054 23.9764 12.9868 23.9764C12.6683 23.9764 12.3598 24.136 12.1148 24.4276C11.8687 24.7284 11.7458 25.1962 11.7462 25.8312V35.5164Z" fill="#00E1BE"/>
<path d="M17.6099 39.8437V21.5054H19.3726L22.1423 32.5544H22.1784V21.5054H24.0132V39.8437H22.2865L19.4808 28.8198H19.4447V39.8437H17.6099Z" fill="#00E1BE"/>
<path d="M25.6678 39.8437V21.5054H31.1361V23.9779H27.5026V29.3609H30.6687V31.8334H27.5026V37.2164H31.1361V39.8437H25.6678Z" fill="#00E1BE"/>
<path d="M34.0314 39.8437V32.0914L31.5129 21.5054H33.4558L34.9313 28.7947H34.9673L36.4418 21.5054H38.3847L35.8662 32.0914V39.8437H34.0314Z" fill="#00E1BE"/>
</svg>
