<svg width="48" height="48" viewBox="0 0 48 48" fill="none" xmlns="http://www.w3.org/2000/svg">
<path d="M7.6927 6.65429H5.45142V5.92889C5.46357 5.25644 5.33724 4.59375 5.08817 4.02341C4.846 3.48732 4.43951 3.21957 3.86868 3.22016C3.60813 3.20409 3.34952 3.29101 3.12117 3.4714C2.93712 3.63099 2.77946 3.84589 2.65908 4.10125C2.53855 4.38649 2.45641 4.70155 2.41691 5.03011C2.37215 5.38863 2.35023 5.75223 2.35143 6.11643C2.34909 6.48443 2.36023 6.85235 2.38479 7.21868C2.40284 7.49405 2.45868 7.76161 2.54911 8.006C2.64257 8.24585 2.77422 8.45073 2.93337 8.60401C3.15032 8.80811 3.38236 8.97722 3.62528 9.10824L5.33898 10.0849C5.7756 10.3088 6.18375 10.6333 6.54735 11.0456C6.84611 11.3973 7.09271 11.831 7.27262 12.3212C7.44133 12.8667 7.55251 13.4451 7.60251 14.0374C7.66434 14.7641 7.69364 15.4957 7.69023 16.2277C7.69502 17.1126 7.62869 17.9954 7.49255 18.8586C7.38093 19.6015 7.16393 20.3037 6.85501 20.9216C6.53875 21.5198 6.12347 21.9959 5.64664 22.3069C5.07205 22.665 4.44936 22.8372 3.82296 22.8111C3.30387 22.8175 2.7889 22.6786 2.30695 22.4024C1.85457 22.1458 1.44343 21.7599 1.09858 21.2683C0.760075 20.783 0.488092 20.2111 0.296712 19.5822C0.0961631 18.9216 -0.00487664 18.2078 0.000180905 17.4874V16.2897H2.24146V17.2981C2.23805 17.8709 2.36563 18.4295 2.60472 18.8887C2.84688 19.3605 3.25338 19.597 3.8242 19.5982C4.12962 19.6202 4.43438 19.539 4.7138 19.3611C4.92173 19.2102 5.09373 18.9744 5.20802 18.6835C5.33162 18.358 5.40296 17.9972 5.41683 17.6272C5.43906 17.2167 5.45018 16.7597 5.45018 16.256C5.45357 15.7722 5.43872 15.2885 5.40571 14.807C5.3884 14.4895 5.32884 14.1796 5.23026 13.8941C5.1267 13.663 4.98767 13.4687 4.82376 13.3261C4.6084 13.1457 4.38418 12.9878 4.15286 12.8538L2.54788 11.909C1.58045 11.341 0.932193 10.5903 0.603125 9.65671C0.274058 8.72314 0.109318 7.55248 0.108906 6.14474C0.105683 5.33397 0.187314 4.52707 0.351076 3.75094C0.496913 3.03563 0.743765 2.37082 1.07634 1.79768C1.39409 1.23975 1.79632 0.792635 2.25258 0.490202C2.78787 0.146992 3.37011 -0.0198786 3.95641 0.0018857C4.48148 -0.00750214 5.00197 0.142652 5.48354 0.442434C5.92965 0.721426 6.33564 1.11679 6.68079 1.60837C7.35416 2.61685 7.69105 3.77217 7.69147 5.07434V6.65429H7.6927Z" fill="#001E1F"/>
<path d="M9.91162 22.6272V0.196533H12.0652L14.944 12.0735H14.9885L17.8451 0.196533H20.0209V22.6272H17.7796V8.98619H17.7351L15.5148 18.6269H14.3942L12.1961 8.98619H12.1517V22.6272H9.91162Z" fill="#00E1BE"/>
<path d="M21.6704 22.6272L25.1645 0.196533H27.0327L30.5268 22.6272H28.2855L27.6258 17.8077H24.5702L23.9105 22.6272H21.6704ZM27.2094 14.7823L26.111 6.65432H26.0665L24.9681 14.7823H27.2094Z" fill="#001E1F"/>
<path d="M32.1763 22.6272V0.196533H35.7804C38.4183 0.196533 39.737 2.39159 39.7366 6.7817C39.7366 8.10511 39.5937 9.22859 39.3079 10.1521C39.0224 11.0775 38.5204 11.8229 37.8017 12.3885L40.2197 22.6272H37.8462L35.7581 13.0502H34.4175V22.6272H32.1763ZM34.4175 3.22196V10.2158H35.6926C36.0159 10.2348 36.3383 10.1539 36.6378 9.97875C36.8627 9.83299 37.0535 9.59778 37.1877 9.30112C37.3147 8.96365 37.3968 8.59528 37.4298 8.2148C37.4769 7.71879 37.4988 7.21855 37.4953 6.71801C37.4981 6.2175 37.4762 5.71732 37.4298 5.22122C37.394 4.82743 37.3046 4.44753 37.1666 4.10305C36.8886 3.51566 36.3611 3.22137 35.5839 3.22019H34.4175V3.22196Z" fill="#001E1F"/>
<path d="M43.1652 22.6271V3.2219H40.5718V0.198242H47.9999V3.2219H45.4065V22.6289H43.1652V22.6271Z" fill="#001E1F"/>
<path d="M0.0224609 47.8124V25.8064H2.13772L4.96465 37.4587H5.0079L7.81383 25.8064H9.95009V47.8124H7.74835V34.4297H7.7051L5.5256 43.8882H4.42472L2.26622 34.4297H2.22297V47.8124H0.0224609Z" fill="#001E1F"/>
<path d="M11.8936 30.9992C11.8823 30.1918 11.9928 29.3904 12.2173 28.6496C12.4177 28.0016 12.7121 27.422 13.081 26.9494C13.4261 26.5167 13.8252 26.1812 14.2572 25.9604C14.9035 25.6273 15.5997 25.5434 16.2758 25.717C16.9519 25.8906 17.5843 26.3156 18.1096 26.9494C18.4677 27.4285 18.754 28.007 18.951 28.6496C19.1751 29.3906 19.2855 30.1919 19.2748 30.9992V42.6215C19.2904 43.4391 19.1799 44.2517 18.951 45.0011C18.7531 45.625 18.4666 46.183 18.1096 46.6394C17.7587 47.0849 17.352 47.4313 16.9112 47.6603C16.0548 48.1132 15.1136 48.1132 14.2572 47.6603C13.8212 47.4367 13.4211 47.0895 13.081 46.6394C12.7128 46.1904 12.418 45.6311 12.2173 45.0011C11.9886 44.2516 11.878 43.4391 11.8936 42.6215V30.9992ZM14.0953 42.6197C14.0953 43.3822 14.2428 43.9437 14.5377 44.304C14.8317 44.6539 15.2019 44.8454 15.5842 44.8454C15.9665 44.8454 16.3367 44.6539 16.6307 44.304C16.926 43.9431 17.0734 43.3816 17.073 42.6197V30.9974C17.073 30.2349 16.9256 29.6734 16.6307 29.3131C16.3367 28.9632 15.9665 28.7717 15.5842 28.7717C15.2019 28.7717 14.8317 28.9632 14.5377 29.3131C14.2424 29.674 14.0949 30.2355 14.0953 30.9974V42.6197Z" fill="#00E1BE"/>
<path d="M21.1318 47.8124V25.8064H23.2471L26.5707 39.0652H26.614V25.8064H28.8157V47.8124H26.7437L23.3768 34.5837H23.3336V47.8124H21.1318Z" fill="#00E1BE"/>
<path d="M30.8013 47.8124V25.8064H37.3633V28.7734H33.003V35.233H36.8023V38.2H33.003V44.6596H37.3633V47.8124H30.8013Z" fill="#00E1BE"/>
<path d="M40.8376 47.8124V38.5096L37.8154 25.8064H40.1469L41.9175 34.5536H41.9607L43.73 25.8064H46.0615L43.0393 38.5096V47.8124H40.8376Z" fill="#00E1BE"/>
</svg>
