<svg width="390" height="272" viewBox="0 0 390 272" fill="none" xmlns="http://www.w3.org/2000/svg">
<path d="M63.18 37.983H45.04V33.883C45.1384 30.0822 44.1159 26.3366 42.1 23.113C40.14 20.083 36.85 18.5696 32.23 18.573C30.1212 18.4821 28.0281 18.9734 26.18 19.993C24.6904 20.895 23.4143 22.1096 22.44 23.553C21.4645 25.1652 20.7997 26.9459 20.48 28.803C20.1177 30.8294 19.9403 32.8845 19.95 34.943C19.9311 37.0229 20.0212 39.1025 20.22 41.173C20.3661 42.7294 20.818 44.2417 21.55 45.623C22.3063 46.9786 23.3719 48.1367 24.66 49.003C26.4159 50.1566 28.294 51.1124 30.26 51.853L44.13 57.373C47.6637 58.6388 50.9672 60.4729 53.91 62.803C56.328 64.7907 58.3239 67.2421 59.78 70.013C61.1455 73.0962 62.0453 76.3653 62.45 79.713C62.9505 83.8203 63.1876 87.9554 63.16 92.093C63.1988 97.0946 62.6619 102.084 61.56 106.963C60.6566 111.162 58.9004 115.131 56.4 118.623C53.8404 122.004 50.4793 124.695 46.62 126.453C41.9695 128.477 36.9297 129.45 31.86 129.303C27.6586 129.339 23.4907 128.554 19.59 126.993C15.9286 125.542 12.601 123.361 9.81 120.583C7.07027 117.84 4.86895 114.607 3.32001 111.053C1.69685 107.319 0.879079 103.284 0.920013 99.213V92.443H19.06V98.143C19.0324 101.38 20.065 104.538 22 107.133C23.96 109.8 27.25 111.136 31.87 111.143C34.3419 111.268 36.8085 110.809 39.07 109.803C40.7529 108.95 42.145 107.617 43.07 105.973C44.0704 104.133 44.6478 102.094 44.76 100.003C44.94 97.683 45.03 95.0997 45.03 92.253C45.0574 89.5185 44.9373 86.7845 44.67 84.063C44.5299 82.2682 44.0479 80.5168 43.25 78.903C42.4118 77.5966 41.2866 76.4987 39.96 75.693C38.217 74.6728 36.4022 73.7805 34.53 73.023L21.54 67.683C13.71 64.473 8.46332 60.2296 5.79999 54.953C3.13665 49.6763 1.80332 43.0596 1.79999 35.103C1.7739 30.5204 2.43459 25.9598 3.76001 21.573C4.94035 17.53 6.93827 13.7724 9.63 10.533C12.2017 7.37948 15.4572 4.85236 19.15 3.14298C23.4824 1.20313 28.1948 0.259959 32.94 0.382973C37.1897 0.329912 41.4023 1.1786 45.3 2.87299C48.9106 4.44988 52.1965 6.68454 54.99 9.46299C60.44 15.163 63.1666 21.693 63.17 29.053V37.983H63.18Z" fill="white"/>
<path d="M81.14 128.263V1.48291H98.57L121.87 68.6129H122.23L145.35 1.48291H162.96V128.263H144.82V51.1629H144.46L126.49 105.653H117.42L99.63 51.1629H99.27V128.263H81.14Z" fill="#00E1BE"/>
<path d="M176.31 128.263L204.59 1.48291H219.71L247.99 128.263H229.85L224.51 101.023H199.78L194.44 128.263H176.31ZM221.14 83.9229L212.25 37.9829H211.89L203 83.9229H221.14Z" fill="#FCF7F7"/>
<path d="M261.34 128.263V1.48291H290.51C311.86 1.48291 322.533 13.8896 322.53 38.7029C322.53 46.1829 321.373 52.5329 319.06 57.7529C316.75 62.9829 312.687 67.1962 306.87 70.3929L326.44 128.263H307.23L290.33 74.1329H279.48V128.263H261.34ZM279.48 18.5829V58.1129H289.8C292.417 58.22 295.026 57.763 297.45 56.7729C299.27 55.9491 300.814 54.6196 301.9 52.9429C302.929 51.0355 303.593 48.9534 303.86 46.8029C304.241 43.9994 304.418 41.172 304.39 38.3429C304.413 35.514 304.236 32.6869 303.86 29.8829C303.57 27.6572 302.847 25.51 301.73 23.5629C299.48 20.2429 295.21 18.5796 288.92 18.5729H279.48V18.5829Z" fill="#FCF7F7"/>
<path d="M350.28 128.263V18.5829H329.29V1.49292H389.41V18.5829H368.42V128.273H350.28V128.263Z" fill="#FCF7F7"/>
<path d="M1.10001 270.613V146.233H18.22L41.1 212.093H41.45L64.16 146.233H81.45V270.613H63.63V194.973H63.28L45.64 248.433H36.73L19.26 194.973H18.91V270.613H1.10001Z" fill="#F9F9F9"/>
<path d="M97.18 175.583C97.089 171.019 97.9826 166.49 99.8 162.303C101.422 158.64 103.805 155.364 106.79 152.693C109.583 150.247 112.813 148.351 116.31 147.103C121.541 145.221 127.175 144.746 132.648 145.727C138.12 146.708 143.238 149.111 147.49 152.693C150.388 155.401 152.705 158.671 154.3 162.303C156.114 166.491 157.007 171.02 156.92 175.583V241.273C157.047 245.894 156.152 250.487 154.3 254.723C152.698 258.249 150.379 261.403 147.49 263.983C144.65 266.501 141.358 268.459 137.79 269.753C130.859 272.313 123.241 272.313 116.31 269.753C112.781 268.489 109.543 266.527 106.79 263.983C103.811 261.445 101.424 258.284 99.8 254.723C97.9487 250.487 97.0541 245.894 97.18 241.273V175.583ZM115 241.263C115 245.573 116.193 248.746 118.58 250.783C120.96 252.76 123.956 253.843 127.05 253.843C130.144 253.843 133.14 252.76 135.52 250.783C137.91 248.743 139.103 245.57 139.1 241.263V175.573C139.1 171.263 137.907 168.09 135.52 166.053C133.14 164.075 130.144 162.993 127.05 162.993C123.956 162.993 120.96 164.075 118.58 166.053C116.19 168.093 114.997 171.266 115 175.573V241.263Z" fill="#00E1BE"/>
<path d="M171.95 270.613V146.233H189.07L215.97 221.173H216.32V146.233H234.14V270.613H217.37L190.12 195.843H189.77V270.613H171.95Z" fill="#00E1BE"/>
<path d="M250.21 270.613V146.233H303.32V163.003H268.03V199.513H298.78V216.283H268.03V252.793H303.32V270.613H250.21Z" fill="#00E1BE"/>
<path d="M331.44 270.613V218.033L306.98 146.233H325.85L340.18 195.673H340.53L354.85 146.233H373.72L349.26 218.033V270.613H331.44Z" fill="#00E1BE"/>
</svg>
